<svg width="32" height="32" viewBox="0 0 32 32" fill="none" xmlns="http://www.w3.org/2000/svg">
<path d="M11.0967 15.2944H8.27148" stroke="#697586" stroke-width="1.8" stroke-linecap="round" stroke-linejoin="round"/>
<path d="M22.4736 15.2944H19.6484" stroke="#697586" stroke-width="1.8" stroke-linecap="round" stroke-linejoin="round"/>
<path d="M23.8857 11.0566L26.7096 9.64404" stroke="#697586" stroke-width="1.8" stroke-linecap="round" stroke-linejoin="round"/>
<path d="M6.85887 11.0566L4.03369 9.64404" stroke="#697586" stroke-width="1.8" stroke-linecap="round" stroke-linejoin="round"/>
<path d="M10.7765 3.99512C9.4638 3.99525 8.32394 4.89918 8.02472 6.17736L6.82422 11.2995L8.02472 6.17736C8.32394 4.89918 9.4638 3.99525 10.7765 3.99512H19.9684C21.2809 3.99489 22.4206 4.89911 22.7188 6.17736L23.9193 11.2995" stroke="#697586" stroke-width="1.8" stroke-linecap="round" stroke-linejoin="round"/>
<path d="M26.7098 14.9464C26.7098 12.8614 25.0212 11.1704 22.9362 11.1675H7.81393C6.81147 11.1671 5.84995 11.5651 5.14098 12.2738C4.43201 12.9825 4.03369 13.9439 4.03369 14.9464V21.3357C4.03369 22.0724 4.63089 22.6696 5.36758 22.6696H8.35016C9.08684 22.6696 9.68404 22.0724 9.68404 21.3357V19.531H17.3339" stroke="#697586" stroke-width="1.8" stroke-linecap="round" stroke-linejoin="round"/>
<path fill-rule="evenodd" clip-rule="evenodd" d="M21.3354 23.6392C21.3354 25.3346 23.7111 26.5938 24.8036 27.0833C25.1428 27.2365 25.5315 27.2365 25.8707 27.0833C26.9631 26.5938 29.3388 25.3373 29.3388 23.6392V20.9194C29.3383 20.3575 28.9858 19.8561 28.4571 19.6656L26.4202 18.932C25.7193 18.6796 24.9523 18.6796 24.2513 18.932L22.2171 19.6643C21.688 19.8549 21.3353 20.357 21.3354 20.9194V23.6392Z" stroke="#697586" stroke-width="1.8" stroke-linecap="round" stroke-linejoin="round"/>
</svg>
