<svg width="32" height="32" viewBox="0 0 32 32" fill="none" xmlns="http://www.w3.org/2000/svg">
<path d="M22.6663 24C22.6663 26.2091 20.8755 28 18.6663 28H13.333C11.1239 28 9.33301 26.2091 9.33301 24" stroke="#697586" stroke-width="1.8" stroke-linecap="round" stroke-linejoin="round"/>
<path d="M9.33317 24.0001V18.6667" stroke="#697586" stroke-width="1.8" stroke-linecap="round" stroke-linejoin="round"/>
<path d="M22.6667 18.6667V24.0001" stroke="#697586" stroke-width="1.8" stroke-linecap="round" stroke-linejoin="round"/>
<path d="M25.3332 14.6667L22.6665 18.6667" stroke="#697586" stroke-width="1.8" stroke-linecap="round" stroke-linejoin="round"/>
<path d="M6.6665 14.6667L9.33317 18.6667" stroke="#697586" stroke-width="1.8" stroke-linecap="round" stroke-linejoin="round"/>
<path d="M19.3332 18.6666C17.1998 19.5555 14.7998 19.5555 12.6665 18.6666" stroke="#697586" stroke-width="1.8" stroke-linecap="round" stroke-linejoin="round"/>
<path d="M22.6663 12V7.18472C22.6625 5.97452 21.8501 4.91623 20.682 4.59976C17.6117 3.80008 14.3877 3.80008 11.3174 4.59976C10.1493 4.91623 9.33688 5.97452 9.33301 7.18472V12" stroke="#697586" stroke-width="1.8" stroke-linecap="round" stroke-linejoin="round"/>
<path d="M12.6665 10.6667L19.3332 10.6666" stroke="#697586" stroke-width="1.8" stroke-linecap="round" stroke-linejoin="round"/>
</svg>
