<svg width="32" height="32" viewBox="0 0 32 32" fill="none" xmlns="http://www.w3.org/2000/svg">
<path d="M24.4853 7.51472C29.1715 12.201 29.1715 19.799 24.4853 24.4853C19.799 29.1715 12.201 29.1715 7.51472 24.4853C2.82843 19.799 2.82843 12.201 7.51472 7.51472C12.201 2.82843 19.799 2.82843 24.4853 7.51472" stroke="#697586" stroke-width="1.8" stroke-linecap="round" stroke-linejoin="round"/>
<path d="M23.2172 25.3747C22.9812 24.7801 22.6146 24.2467 22.1453 23.8121C21.3519 23.0761 20.3146 22.6667 19.2319 22.6667C17.4266 22.6667 14.5733 22.6667 12.7679 22.6667C11.6853 22.6667 10.6479 23.0761 9.85325 23.8121C9.38392 24.2467 9.01858 24.7801 8.78125 25.3747" stroke="#697586" stroke-width="1.8" stroke-linecap="round" stroke-linejoin="round"/>
<path d="M17.8858 14.1143C18.9272 15.1557 18.9272 16.8441 17.8858 17.8855C16.8444 18.9269 15.1559 18.9269 14.1145 17.8855C13.0731 16.8441 13.0731 15.1557 14.1145 14.1143C15.1559 13.0729 16.8444 13.0729 17.8858 14.1143" stroke="#697586" stroke-width="1.8" stroke-linecap="round" stroke-linejoin="round"/>
<path d="M16.0002 4V6.66667" stroke="#697586" stroke-width="1.8" stroke-linecap="round" stroke-linejoin="round"/>
<path d="M22.0001 5.61328L20.8401 7.61328" stroke="#697586" stroke-width="1.8" stroke-linecap="round" stroke-linejoin="round"/>
<path d="M10.0002 5.61328L11.1602 7.61328" stroke="#697586" stroke-width="1.8" stroke-linecap="round" stroke-linejoin="round"/>
<path d="M5.61328 10L7.61328 11.16" stroke="#697586" stroke-width="1.8" stroke-linecap="round" stroke-linejoin="round"/>
<path d="M28 15.9999H26" stroke="#697586" stroke-width="1.8" stroke-linecap="round" stroke-linejoin="round"/>
<path d="M6 15.9999H4" stroke="#697586" stroke-width="1.8" stroke-linecap="round" stroke-linejoin="round"/>
<path d="M18.3867 14.84L26.3867 10" stroke="#697586" stroke-width="1.8" stroke-linecap="round" stroke-linejoin="round"/>
</svg>
