<svg width="32" height="32" viewBox="0 0 32 32" fill="none" xmlns="http://www.w3.org/2000/svg">
<path d="M8.49883 22.9999C8.22283 23.0013 8.00016 23.2253 8.00016 23.5013C8.00016 23.7773 8.22416 23.9999 8.50016 23.9999C8.77616 23.9999 9.00016 23.7759 9.00016 23.4999C9.00016 23.2239 8.77616 22.9999 8.49883 22.9999" stroke="#697586" stroke-width="1.8" stroke-linecap="round" stroke-linejoin="round"/>
<path fill-rule="evenodd" clip-rule="evenodd" d="M8.66667 28V28C6.08933 28 4 25.9107 4 23.3333V6.66667C4 5.19333 5.19333 4 6.66667 4H10.6667C12.14 4 13.3333 5.19333 13.3333 6.66667V23.3333C13.3333 25.9107 11.244 28 8.66667 28Z" stroke="#697586" stroke-width="1.8" stroke-linecap="round" stroke-linejoin="round"/>
<path d="M11.9668 26.6333L24.9148 13.6853C25.9561 12.644 25.9561 10.956 24.9148 9.91466L22.0868 7.08666C21.0455 6.04533 19.3575 6.04533 18.3161 7.08666L13.3335 12.0667" stroke="#697586" stroke-width="1.8" stroke-linecap="round" stroke-linejoin="round"/>
<path d="M19.9332 18.6667H25.3332C26.8065 18.6667 27.9998 19.8601 27.9998 21.3334V25.3334C27.9998 26.8067 26.8065 28.0001 25.3332 28.0001H8.6665" stroke="#697586" stroke-width="1.8" stroke-linecap="round" stroke-linejoin="round"/>
</svg>
