<svg width="32" height="32" viewBox="0 0 32 32" fill="none" xmlns="http://www.w3.org/2000/svg">
<path d="M26.6667 13.3333V6.66667C26.6667 5.19391 25.4728 4 24 4H6.66667C5.19391 4 4 5.19391 4 6.66667V25.3333C4 26.8061 5.19391 28 6.66667 28H10.6667" stroke="#697586" stroke-width="1.8" stroke-linecap="round" stroke-linejoin="round"/>
<path d="M9.3335 10.6667H21.3335" stroke="#697586" stroke-width="1.8" stroke-linecap="round" stroke-linejoin="round"/>
<path d="M9.3335 15.9999H13.3335" stroke="#697586" stroke-width="1.8" stroke-linecap="round" stroke-linejoin="round"/>
<path d="M9.3335 21.3334H10.6668" stroke="#697586" stroke-width="1.8" stroke-linecap="round" stroke-linejoin="round"/>
<path fill-rule="evenodd" clip-rule="evenodd" d="M25.3333 26H20V26.6667C20 27.403 19.403 28 18.6667 28H17.3333C16.597 28 16 27.403 16 26.6667V24.3333C16 23.0447 17.0447 22 18.3333 22H27C28.2887 22 29.3333 23.0447 29.3333 24.3333V26.6667C29.3333 27.403 28.7364 28 28 28H26.6667C25.9303 28 25.3333 27.403 25.3333 26.6667V26Z" stroke="#697586" stroke-width="1.8" stroke-linecap="round" stroke-linejoin="round"/>
<path d="M17.519 22.1542L18.2856 18.8777C18.4972 17.973 19.3039 17.3333 20.233 17.3333H25.1003C26.0294 17.3333 26.8361 17.973 27.0478 18.8777L27.8143 22.1542" stroke="#697586" stroke-width="1.8" stroke-linecap="round" stroke-linejoin="round"/>
<path d="M17.6522 21.4967L16 20.6667" stroke="#697586" stroke-width="1.8" stroke-linecap="round" stroke-linejoin="round"/>
<path d="M27.6812 21.4967L29.3333 20.6667" stroke="#697586" stroke-width="1.8" stroke-linecap="round" stroke-linejoin="round"/>
</svg>
