<svg width="32" height="32" viewBox="0 0 32 32" fill="none" xmlns="http://www.w3.org/2000/svg">
<path d="M20.0002 4V6.66667" stroke="#697586" stroke-width="1.8" stroke-linecap="round" stroke-linejoin="round"/>
<path d="M9.33317 4V6.66667" stroke="#697586" stroke-width="1.8" stroke-linecap="round" stroke-linejoin="round"/>
<path d="M4 11.9999H25.3333" stroke="#697586" stroke-width="1.8" stroke-linecap="round" stroke-linejoin="round"/>
<path d="M25.3333 13.3333V9.33325C25.3333 7.12392 23.5427 5.33325 21.3333 5.33325H8C5.79067 5.33325 4 7.12392 4 9.33325V21.3333C4 23.5426 5.79067 25.3333 8 25.3333H13.3333" stroke="#697586" stroke-width="1.8" stroke-linecap="round" stroke-linejoin="round"/>
<path d="M23.1904 21.3105V23.6545L25.0331 24.7785" stroke="#697586" stroke-width="1.8" stroke-linecap="round" stroke-linejoin="round"/>
<path d="M23.3335 29.3333C20.0202 29.3333 17.3335 26.6479 17.3335 23.3333C17.3335 20.0879 20.0935 17.3293 23.3388 17.3333C26.6508 17.3359 29.3335 20.0213 29.3335 23.3333C29.3335 26.6466 26.6482 29.3333 23.3335 29.3333" stroke="#697586" stroke-width="1.8"/>
</svg>
