<svg width="204" height="36" viewBox="0 0 204 36" fill="none" xmlns="http://www.w3.org/2000/svg">
<g clip-path="url(#clip0_583_300)">
<path fill-rule="evenodd" clip-rule="evenodd" d="M63.5089 0.537955C72.6774 1.92967 79.2743 5.97368 82.8975 11.8564L69.4588 15.9111L71.2159 13.6255C68.7374 10.1569 65.013 7.48584 60.1519 5.85592L63.5115 0.535278L63.5089 0.537955Z" fill="#F42705"/>
<path fill-rule="evenodd" clip-rule="evenodd" d="M24.3137 10.0123L22.7403 9.19335C14.8363 12.2471 7.04678 16.5213 0 21.6466C7.18256 16.0877 15.1584 11.3238 23.3553 7.69458L24.3163 10.0097L24.3137 10.0123Z" fill="#0E0A01"/>
<path fill-rule="evenodd" clip-rule="evenodd" d="M40.4331 6.46343L39.2485 4.71576C34.9277 5.36344 30.5112 6.47414 26.1 7.97827L25.5835 6.7391C30.7109 4.6087 35.9048 2.92258 41.0268 1.77441L40.4305 6.46611L40.4331 6.46343Z" fill="#0E0A01"/>
<path fill-rule="evenodd" clip-rule="evenodd" d="M56.0787 0C57.7239 0 59.3106 0.0722623 60.836 0.21411L56.4195 7.22623L56.3476 4.84425C53.7706 4.31968 50.9407 4.04401 47.8659 4.04401C46.3218 4.04401 44.7485 4.11092 43.1565 4.25277L43.5319 1.25255C47.81 0.433574 52.0189 0 56.0787 0Z" fill="#0E0A01"/>
<path d="M108.532 35.9813L106.085 31.4047H94.2757L91.8292 35.9813H87.4473L98.1758 16.2992H102.188L112.916 35.9813H108.534H108.532ZM100.194 20.1612L95.7559 28.3135H104.634L100.196 20.1612H100.194Z" fill="#0E0A01"/>
<path d="M119.686 35.9813C118.605 35.9813 117.689 35.8662 116.941 35.6387C116.191 35.4112 115.584 35.0419 115.12 34.5387C114.655 34.0329 114.319 33.3906 114.112 32.6091C113.904 31.8276 113.797 30.8748 113.797 29.748V16.3019H117.61V29.748C117.61 30.5884 117.767 31.1933 118.078 31.5653C118.392 31.9373 118.927 32.122 119.686 32.122H129.246C130.005 32.122 130.54 31.9346 130.854 31.5653C131.168 31.1933 131.322 30.5884 131.322 29.748V16.3019H135.164V29.748C135.164 30.8748 135.06 31.8276 134.85 32.6091C134.642 33.3906 134.304 34.0356 133.841 34.5387C133.375 35.0446 132.763 35.4112 132.007 35.6387C131.248 35.8662 130.327 35.9813 129.246 35.9813H119.686Z" fill="#0E0A01"/>
<path d="M144.583 35.9813V20.1907H137.44V16.2992H155.567V20.1907H148.424V35.9813H144.583Z" fill="#0E0A01"/>
<path d="M163.99 35.9813C162.795 35.9813 161.807 35.8769 161.03 35.6655C160.253 35.4567 159.627 35.1034 159.153 34.6056C158.679 34.1105 158.346 33.4521 158.157 32.6305C157.968 31.8115 157.873 30.7998 157.873 29.5981V22.6743C157.873 21.4726 157.968 20.4609 158.157 19.642C158.346 18.823 158.679 18.1646 159.153 17.6695C159.627 17.1744 160.253 16.8211 161.03 16.6096C161.807 16.4009 162.795 16.2938 163.99 16.2938H174.319C175.478 16.2938 176.449 16.3982 177.237 16.6096C178.025 16.8184 178.656 17.1717 179.13 17.6695C179.604 18.1646 179.942 18.823 180.139 19.642C180.339 20.4609 180.437 21.4726 180.437 22.6743V29.5981C180.437 30.7998 180.339 31.8115 180.139 32.6305C179.939 33.4494 179.604 34.1078 179.13 34.6056C178.656 35.1008 178.025 35.454 177.237 35.6655C176.449 35.8742 175.478 35.9813 174.319 35.9813H163.99ZM176.596 22.7064C176.596 21.7349 176.425 21.0712 176.085 20.7179C175.744 20.3646 175.145 20.188 174.293 20.188H163.993C163.138 20.188 162.542 20.3646 162.201 20.7179C161.861 21.0712 161.69 21.7349 161.69 22.7064V29.6302C161.69 30.1254 161.727 30.5322 161.805 30.8453C161.879 31.1611 162.007 31.4127 162.188 31.6027C162.369 31.7927 162.606 31.9266 162.899 32.0042C163.192 32.0818 163.559 32.1193 163.996 32.1193H174.296C175.169 32.1193 175.77 31.948 176.103 31.6054C176.436 31.2628 176.601 30.6044 176.601 29.6302V22.7064H176.596Z" fill="#0E0A01"/>
<path d="M204 30.2886C204 31.3378 203.886 32.2237 203.659 32.949C203.43 33.6743 203.066 34.2604 202.562 34.7073C202.059 35.157 201.399 35.4808 200.584 35.6789C199.77 35.8796 198.782 35.9786 197.624 35.9786H183.794C183.831 35.3309 183.874 34.6859 183.922 34.049C183.97 33.4093 184.012 32.767 184.05 32.1193H197.366C197.877 32.1193 198.308 32.0872 198.66 32.0203C199.011 31.9533 199.285 31.8329 199.485 31.6616C199.685 31.4903 199.826 31.2655 199.911 30.9899C199.996 30.7142 200.039 30.3663 200.039 29.9461C200.039 29.1271 199.858 28.5597 199.498 28.2439C199.139 27.9281 198.455 27.7728 197.448 27.7728H189.51C188.333 27.7728 187.351 27.6685 186.565 27.457C185.777 27.2483 185.144 26.9244 184.659 26.4855C184.175 26.0466 183.829 25.4952 183.621 24.8261C183.413 24.1597 183.307 23.3782 183.307 22.479V21.8206C183.307 20.849 183.411 20.0087 183.621 19.3021C183.829 18.5955 184.18 18.0255 184.675 17.5865C185.168 17.1476 185.817 16.8238 186.624 16.615C187.431 16.4062 188.432 16.2992 189.627 16.2992H203.342C203.265 16.9656 203.191 17.6213 203.113 18.2583C203.036 18.898 202.951 19.551 202.858 20.2174H189.627C188.679 20.2174 188.038 20.3807 187.707 20.7045C187.375 21.0284 187.21 21.5824 187.21 22.3639C187.21 23.1454 187.375 23.7047 187.707 24.0366C188.04 24.3712 188.679 24.5371 189.627 24.5371H197.451C198.665 24.5371 199.69 24.6361 200.523 24.8369C201.356 25.0376 202.03 25.348 202.544 25.7656C203.055 26.1857 203.425 26.7157 203.654 27.3526C203.88 27.9923 203.995 28.739 203.995 29.5981V30.2833L204 30.2886Z" fill="#0E0A01"/>
<path d="M35.2233 16.2992L28.512 30.6847L21.8246 16.2992H16.4177V35.9813H21.0845V25.613L26.0575 35.9813H30.8787L35.8809 25.6023V35.9813H40.5477V16.2992H35.2233Z" fill="#0E0A01"/>
<path d="M67.2093 16.2992H59.9601L47.7754 27.4222V16.2992H42.7651V35.9813H47.7754V33.8322L53.0757 29.0441L60.0001 35.9813H67.1241L56.5792 25.8673L67.2093 16.2992Z" fill="#0E0A01"/>
<path d="M83.6882 14.0537L72.8664 17.3162C75.0042 22.4923 74.9509 28.8942 72.4485 36H83.438C86.4728 27.5855 86.4436 20.0381 83.6855 14.0537H83.6882Z" fill="#F42705"/>
</g>
<defs>
<clipPath id="clip0_583_300">
<rect width="204" height="36" fill="white"/>
</clipPath>
</defs>
</svg>
