<svg width="138" height="24" viewBox="0 0 138 24" fill="none" xmlns="http://www.w3.org/2000/svg">
<g clip-path="url(#clip0_603_881)">
<path fill-rule="evenodd" clip-rule="evenodd" d="M43.1507 0.358718C49.308 1.28653 53.7383 3.98254 56.1715 7.90433L47.1465 10.6075L48.3265 9.08372C46.662 6.77133 44.1608 4.99064 40.8962 3.90403L43.1525 0.356934L43.1507 0.358718Z" fill="#CDD5DF"/>
<path fill-rule="evenodd" clip-rule="evenodd" d="M16.8283 6.6748L15.7717 6.12882C10.4636 8.16465 5.2324 11.0141 0.5 14.431C5.32358 10.7251 10.6799 7.54909 16.1847 5.12964L16.8301 6.67302L16.8283 6.6748Z" fill="#CDD5DF"/>
<path fill-rule="evenodd" clip-rule="evenodd" d="M27.6537 4.30887L26.8581 3.14376C23.9565 3.57555 20.9904 4.31601 18.028 5.31876L17.6812 4.49265C21.1245 3.07239 24.6126 1.94831 28.0524 1.18286L27.6519 4.31066L27.6537 4.30887Z" fill="#CDD5DF"/>
<path fill-rule="evenodd" clip-rule="evenodd" d="M38.1608 0C39.2657 0 40.3313 0.0481749 41.3557 0.14274L38.3897 4.81749L38.3414 3.2295C36.6108 2.87979 34.7103 2.69601 32.6453 2.69601C31.6084 2.69601 30.5518 2.74061 29.4827 2.83518L29.7348 0.835031C32.6078 0.289049 35.4344 0 38.1608 0Z" fill="#CDD5DF"/>
<path d="M73.3865 23.9876L71.7434 20.9365H63.8126L62.1696 23.9876H59.2268L66.4318 10.8662H69.126L76.331 23.9876H73.3882H73.3865ZM67.787 13.4409L64.8066 18.8757H70.7691L67.7887 13.4409H67.787Z" fill="#CDD5DF"/>
<path d="M80.8775 23.9875C80.1517 23.9875 79.5367 23.9108 79.0343 23.7592C78.5301 23.6075 78.1225 23.3613 77.8114 23.0258C77.4985 22.6886 77.2733 22.2604 77.1338 21.7394C76.9944 21.2184 76.9229 20.5832 76.9229 19.832V10.8679H79.483V19.832C79.483 20.3923 79.5885 20.7955 79.7977 21.0435C80.0087 21.2915 80.368 21.4146 80.8775 21.4146H87.2977C87.8072 21.4146 88.1665 21.2897 88.3775 21.0435C88.5885 20.7955 88.6922 20.3923 88.6922 19.832V10.8679H91.272V19.832C91.272 20.5832 91.2023 21.2184 91.0611 21.7394C90.9216 22.2604 90.6945 22.6904 90.3835 23.0258C90.0706 23.363 89.6594 23.6075 89.1516 23.7592C88.6421 23.9108 88.0235 23.9875 87.2977 23.9875H80.8775Z" fill="#CDD5DF"/>
<path d="M97.5973 23.9876V13.4605H92.8005V10.8662H104.974V13.4605H100.177V23.9876H97.5973Z" fill="#CDD5DF"/>
<path d="M110.631 23.9875C109.828 23.9875 109.165 23.9179 108.643 23.777C108.121 23.6378 107.7 23.4023 107.382 23.0704C107.064 22.7403 106.84 22.3014 106.714 21.7536C106.587 21.2077 106.522 20.5332 106.522 19.7321V15.1162C106.522 14.3151 106.587 13.6406 106.714 13.0947C106.84 12.5487 107.064 12.1097 107.382 11.7797C107.7 11.4496 108.121 11.214 108.643 11.0731C109.165 10.9339 109.828 10.8625 110.631 10.8625H117.567C118.345 10.8625 118.998 10.9321 119.527 11.0731C120.056 11.2123 120.48 11.4478 120.798 11.7797C121.116 12.1097 121.343 12.5487 121.476 13.0947C121.61 13.6406 121.676 14.3151 121.676 15.1162V19.7321C121.676 20.5332 121.61 21.2077 121.476 21.7536C121.342 22.2996 121.116 22.7385 120.798 23.0704C120.48 23.4005 120.056 23.636 119.527 23.777C118.998 23.9161 118.345 23.9875 117.567 23.9875H110.631ZM119.096 15.1376C119.096 14.4899 118.982 14.0474 118.753 13.8119C118.524 13.5764 118.122 13.4586 117.55 13.4586H110.632C110.059 13.4586 109.658 13.5764 109.429 13.8119C109.2 14.0474 109.086 14.4899 109.086 15.1376V19.7535C109.086 20.0836 109.111 20.3548 109.163 20.5635C109.213 20.7741 109.299 20.9418 109.42 21.0685C109.542 21.1952 109.701 21.2844 109.898 21.3361C110.094 21.3879 110.341 21.4128 110.634 21.4128H117.551C118.138 21.4128 118.542 21.2986 118.765 21.0703C118.989 20.8419 119.1 20.403 119.1 19.7535V15.1376H119.096Z" fill="#CDD5DF"/>
<path d="M137.5 20.1925C137.5 20.8919 137.423 21.4825 137.271 21.9661C137.118 22.4496 136.873 22.8403 136.535 23.1383C136.197 23.4381 135.753 23.654 135.206 23.786C134.659 23.9198 133.996 23.9858 133.218 23.9858H123.93C123.955 23.554 123.984 23.124 124.016 22.6994C124.048 22.2729 124.077 21.8447 124.102 21.4129H133.045C133.388 21.4129 133.678 21.3915 133.914 21.3469C134.15 21.3023 134.334 21.222 134.468 21.1078C134.602 20.9936 134.697 20.8438 134.754 20.66C134.811 20.4762 134.84 20.2442 134.84 19.9641C134.84 19.4181 134.718 19.0399 134.477 18.8293C134.236 18.6188 133.776 18.5153 133.1 18.5153H127.769C126.979 18.5153 126.319 18.4457 125.792 18.3048C125.262 18.1656 124.837 17.9497 124.511 17.6571C124.186 17.3645 123.954 16.9969 123.814 16.5508C123.675 16.1066 123.603 15.5856 123.603 14.9861V14.5471C123.603 13.8994 123.673 13.3392 123.814 12.8681C123.954 12.3971 124.19 12.0171 124.522 11.7244C124.853 11.4318 125.289 11.2159 125.831 11.0768C126.373 10.9376 127.045 10.8662 127.848 10.8662H137.059C137.007 11.3105 136.957 11.7476 136.905 12.1723C136.853 12.5987 136.796 13.0341 136.733 13.4784H127.848C127.211 13.4784 126.78 13.5872 126.559 13.8031C126.335 14.019 126.224 14.3883 126.224 14.9093C126.224 15.4303 126.335 15.8032 126.559 16.0245C126.782 16.2475 127.211 16.3581 127.848 16.3581H133.102C133.917 16.3581 134.606 16.4242 135.165 16.558C135.725 16.6918 136.177 16.8988 136.522 17.1771C136.865 17.4572 137.114 17.8105 137.268 18.2352C137.42 18.6616 137.497 19.1594 137.497 19.7322V20.1889L137.5 20.1925Z" fill="#CDD5DF"/>
<path d="M24.1549 10.8662L19.6478 20.4566L15.1567 10.8662H11.5256V23.9876H14.6597V17.0754L17.9994 23.9876H21.2372L24.5965 17.0683V23.9876H27.7306V10.8662H24.1549Z" fill="#CDD5DF"/>
<path d="M45.6356 10.8662H40.7674L32.5844 18.2816V10.8662H29.2197V23.9876H32.5844V22.5549L36.144 19.3628L40.7942 23.9876H45.5784L38.4968 17.2449L45.6356 10.8662Z" fill="#CDD5DF"/>
<path d="M56.7023 9.36914L49.4347 11.5441C50.8704 14.9949 50.8346 19.2628 49.1541 24H56.5342C58.5724 18.3903 58.5527 13.3587 56.7005 9.36914H56.7023Z" fill="#CDD5DF"/>
</g>
<defs>
<clipPath id="clip0_603_881">
<rect width="137" height="24" fill="white" transform="translate(0.5)"/>
</clipPath>
</defs>
</svg>
